<svg xmlns="http://www.w3.org/2000/svg" xmlns:xlink="http://www.w3.org/1999/xlink" width="200" zoomAndPan="magnify" viewBox="0 0 150 74.999997" height="100" preserveAspectRatio="xMidYMid meet" version="1.0"><defs><g/><clipPath id="ae67a4c9fb"><path d="M 0 5 L 59.25 5 L 59.25 55.382812 L 0 55.382812 Z M 0 5 " clip-rule="nonzero"/></clipPath></defs><g clip-path="url(#ae67a4c9fb)"><path fill="#d339af" d="M 44.4375 39.171875 C 44.4375 41.617188 42.449219 43.601562 39.992188 43.601562 C 37.542969 43.601562 35.554688 41.617188 35.554688 39.171875 C 35.554688 36.722656 37.542969 34.742188 39.992188 34.742188 C 42.449219 34.742188 44.4375 36.722656 44.4375 39.171875 Z M 23.703125 39.171875 C 23.703125 41.617188 21.707031 43.601562 19.257812 43.601562 C 16.800781 43.601562 14.8125 41.617188 14.8125 39.171875 C 14.8125 36.722656 16.800781 34.742188 19.257812 34.742188 C 21.707031 34.742188 23.703125 36.722656 23.703125 39.171875 Z M 50.367188 46.550781 C 50.359375 49.8125 47.710938 52.453125 44.4375 52.453125 L 14.8125 52.453125 C 11.539062 52.453125 8.890625 49.8125 8.890625 46.550781 L 8.890625 31.789062 C 8.890625 28.53125 11.539062 25.886719 14.8125 25.882812 L 44.4375 25.882812 C 47.710938 25.886719 50.359375 28.53125 50.367188 31.789062 Z M 54.804688 34.742188 L 53.320312 34.742188 L 53.320312 31.789062 C 53.320312 26.898438 49.34375 22.933594 44.4375 22.933594 L 32.585938 22.933594 L 32.585938 16.210938 C 35.421875 14.582031 36.394531 10.96875 34.753906 8.144531 C 33.117188 5.320312 29.5 4.355469 26.664062 5.984375 C 23.828125 7.617188 22.855469 11.226562 24.496094 14.046875 C 25.011719 14.949219 25.765625 15.691406 26.664062 16.210938 L 26.664062 22.933594 L 14.8125 22.933594 C 9.90625 22.933594 5.921875 26.898438 5.921875 31.789062 L 5.921875 34.742188 L 4.445312 34.742188 C 1.988281 34.742188 0 36.722656 0 39.171875 C 0 41.617188 1.988281 43.601562 4.445312 43.601562 L 5.921875 43.601562 L 5.921875 46.550781 C 5.921875 51.441406 9.90625 55.410156 14.8125 55.410156 L 44.4375 55.410156 C 49.34375 55.410156 53.320312 51.441406 53.320312 46.550781 L 53.320312 43.601562 L 54.804688 43.601562 C 57.261719 43.601562 59.25 41.617188 59.25 39.171875 C 59.25 36.722656 57.261719 34.742188 54.804688 34.742188 " fill-opacity="1" fill-rule="nonzero"/></g><g fill="#d339af" fill-opacity="1"><g transform="translate(61.290724, 41.612672)"><g><path d="M 7.625 -12.125 C 8.070312 -12.125 8.445312 -11.992188 8.75 -11.734375 C 9.050781 -11.484375 9.203125 -11.1875 9.203125 -10.84375 C 9.203125 -10.382812 9.082031 -10.039062 8.84375 -9.8125 C 8.613281 -9.582031 8.332031 -9.46875 8 -9.46875 C 7.78125 -9.46875 7.53125 -9.519531 7.25 -9.625 C 7.207031 -9.644531 7.109375 -9.675781 6.953125 -9.71875 C 6.796875 -9.757812 6.628906 -9.78125 6.453125 -9.78125 C 6.066406 -9.78125 5.691406 -9.660156 5.328125 -9.421875 C 4.972656 -9.191406 4.679688 -8.832031 4.453125 -8.34375 C 4.222656 -7.863281 4.109375 -7.289062 4.109375 -6.625 L 4.109375 -1.359375 C 4.109375 -0.972656 3.984375 -0.648438 3.734375 -0.390625 C 3.484375 -0.128906 3.164062 0 2.78125 0 C 2.394531 0 2.070312 -0.128906 1.8125 -0.390625 C 1.5625 -0.648438 1.4375 -0.972656 1.4375 -1.359375 L 1.4375 -10.546875 C 1.4375 -10.929688 1.5625 -11.25 1.8125 -11.5 C 2.070312 -11.757812 2.394531 -11.890625 2.78125 -11.890625 C 3.164062 -11.890625 3.484375 -11.757812 3.734375 -11.5 C 3.984375 -11.25 4.109375 -10.929688 4.109375 -10.546875 L 4.109375 -10.25 C 4.453125 -10.851562 4.941406 -11.316406 5.578125 -11.640625 C 6.210938 -11.960938 6.894531 -12.125 7.625 -12.125 Z M 7.625 -12.125 "/></g></g></g><g fill="#d339af" fill-opacity="1"><g transform="translate(70.941082, 41.612672)"><g><path d="M 12.875 -5.9375 C 12.875 -4.75 12.601562 -3.679688 12.0625 -2.734375 C 11.53125 -1.796875 10.800781 -1.066406 9.875 -0.546875 C 8.957031 -0.0351562 7.941406 0.21875 6.828125 0.21875 C 5.703125 0.21875 4.675781 -0.0351562 3.75 -0.546875 C 2.832031 -1.066406 2.109375 -1.796875 1.578125 -2.734375 C 1.046875 -3.679688 0.78125 -4.75 0.78125 -5.9375 C 0.78125 -7.125 1.046875 -8.1875 1.578125 -9.125 C 2.109375 -10.070312 2.832031 -10.804688 3.75 -11.328125 C 4.675781 -11.859375 5.703125 -12.125 6.828125 -12.125 C 7.941406 -12.125 8.957031 -11.859375 9.875 -11.328125 C 10.800781 -10.804688 11.53125 -10.070312 12.0625 -9.125 C 12.601562 -8.1875 12.875 -7.125 12.875 -5.9375 Z M 10.203125 -5.9375 C 10.203125 -6.664062 10.050781 -7.3125 9.75 -7.875 C 9.445312 -8.445312 9.039062 -8.890625 8.53125 -9.203125 C 8.019531 -9.515625 7.453125 -9.671875 6.828125 -9.671875 C 6.203125 -9.671875 5.632812 -9.515625 5.125 -9.203125 C 4.613281 -8.890625 4.207031 -8.445312 3.90625 -7.875 C 3.601562 -7.3125 3.453125 -6.664062 3.453125 -5.9375 C 3.453125 -5.207031 3.601562 -4.5625 3.90625 -4 C 4.207031 -3.4375 4.613281 -3 5.125 -2.6875 C 5.632812 -2.375 6.203125 -2.21875 6.828125 -2.21875 C 7.453125 -2.21875 8.019531 -2.375 8.53125 -2.6875 C 9.039062 -3 9.445312 -3.4375 9.75 -4 C 10.050781 -4.5625 10.203125 -5.207031 10.203125 -5.9375 Z M 10.203125 -5.9375 "/></g></g></g><g fill="#d339af" fill-opacity="1"><g transform="translate(84.593914, 41.612672)"><g><path d="M 7.609375 -12.125 C 8.628906 -12.125 9.550781 -11.859375 10.375 -11.328125 C 11.207031 -10.804688 11.863281 -10.078125 12.34375 -9.140625 C 12.832031 -8.203125 13.078125 -7.140625 13.078125 -5.953125 C 13.078125 -4.773438 12.835938 -3.710938 12.359375 -2.765625 C 11.890625 -1.828125 11.242188 -1.09375 10.421875 -0.5625 C 9.597656 -0.0390625 8.6875 0.21875 7.6875 0.21875 C 6.976562 0.21875 6.304688 0.078125 5.671875 -0.203125 C 5.046875 -0.492188 4.523438 -0.847656 4.109375 -1.265625 L 4.109375 -1.140625 C 4.109375 -0.753906 3.984375 -0.429688 3.734375 -0.171875 C 3.484375 0.0859375 3.164062 0.21875 2.78125 0.21875 C 2.394531 0.21875 2.070312 0.09375 1.8125 -0.15625 C 1.5625 -0.40625 1.4375 -0.734375 1.4375 -1.140625 L 1.4375 -15.09375 C 1.4375 -15.476562 1.5625 -15.800781 1.8125 -16.0625 C 2.070312 -16.320312 2.394531 -16.453125 2.78125 -16.453125 C 3.164062 -16.453125 3.484375 -16.320312 3.734375 -16.0625 C 3.984375 -15.800781 4.109375 -15.476562 4.109375 -15.09375 L 4.109375 -10.453125 C 4.460938 -10.898438 4.957031 -11.289062 5.59375 -11.625 C 6.238281 -11.957031 6.910156 -12.125 7.609375 -12.125 Z M 7.265625 -2.21875 C 8.210938 -2.21875 8.988281 -2.570312 9.59375 -3.28125 C 10.207031 -4 10.515625 -4.890625 10.515625 -5.953125 C 10.515625 -7.023438 10.210938 -7.910156 9.609375 -8.609375 C 9.015625 -9.316406 8.234375 -9.671875 7.265625 -9.671875 C 6.304688 -9.671875 5.519531 -9.316406 4.90625 -8.609375 C 4.300781 -7.910156 4 -7.023438 4 -5.953125 C 4 -4.890625 4.300781 -4 4.90625 -3.28125 C 5.519531 -2.570312 6.304688 -2.21875 7.265625 -2.21875 Z M 7.265625 -2.21875 "/></g></g></g><g fill="#d339af" fill-opacity="1"><g transform="translate(98.446864, 41.612672)"><g><path d="M 12.875 -5.9375 C 12.875 -4.75 12.601562 -3.679688 12.0625 -2.734375 C 11.53125 -1.796875 10.800781 -1.066406 9.875 -0.546875 C 8.957031 -0.0351562 7.941406 0.21875 6.828125 0.21875 C 5.703125 0.21875 4.675781 -0.0351562 3.75 -0.546875 C 2.832031 -1.066406 2.109375 -1.796875 1.578125 -2.734375 C 1.046875 -3.679688 0.78125 -4.75 0.78125 -5.9375 C 0.78125 -7.125 1.046875 -8.1875 1.578125 -9.125 C 2.109375 -10.070312 2.832031 -10.804688 3.75 -11.328125 C 4.675781 -11.859375 5.703125 -12.125 6.828125 -12.125 C 7.941406 -12.125 8.957031 -11.859375 9.875 -11.328125 C 10.800781 -10.804688 11.53125 -10.070312 12.0625 -9.125 C 12.601562 -8.1875 12.875 -7.125 12.875 -5.9375 Z M 10.203125 -5.9375 C 10.203125 -6.664062 10.050781 -7.3125 9.75 -7.875 C 9.445312 -8.445312 9.039062 -8.890625 8.53125 -9.203125 C 8.019531 -9.515625 7.453125 -9.671875 6.828125 -9.671875 C 6.203125 -9.671875 5.632812 -9.515625 5.125 -9.203125 C 4.613281 -8.890625 4.207031 -8.445312 3.90625 -7.875 C 3.601562 -7.3125 3.453125 -6.664062 3.453125 -5.9375 C 3.453125 -5.207031 3.601562 -4.5625 3.90625 -4 C 4.207031 -3.4375 4.613281 -3 5.125 -2.6875 C 5.632812 -2.375 6.203125 -2.21875 6.828125 -2.21875 C 7.453125 -2.21875 8.019531 -2.375 8.53125 -2.6875 C 9.039062 -3 9.445312 -3.4375 9.75 -4 C 10.050781 -4.5625 10.203125 -5.207031 10.203125 -5.9375 Z M 10.203125 -5.9375 "/></g></g></g><g fill="#d339af" fill-opacity="1"><g transform="translate(112.099695, 41.612672)"><g><path d="M 11.078125 -12.125 C 11.460938 -12.125 11.78125 -11.992188 12.03125 -11.734375 C 12.28125 -11.484375 12.40625 -11.160156 12.40625 -10.765625 L 12.40625 -1.359375 C 12.40625 -0.972656 12.28125 -0.648438 12.03125 -0.390625 C 11.78125 -0.128906 11.460938 0 11.078125 0 C 10.691406 0 10.375 -0.125 10.125 -0.375 C 9.882812 -0.625 9.753906 -0.941406 9.734375 -1.328125 C 9.367188 -0.898438 8.867188 -0.535156 8.234375 -0.234375 C 7.609375 0.0664062 6.945312 0.21875 6.25 0.21875 C 5.226562 0.21875 4.300781 -0.0390625 3.46875 -0.5625 C 2.632812 -1.09375 1.976562 -1.820312 1.5 -2.75 C 1.019531 -3.6875 0.78125 -4.75 0.78125 -5.9375 C 0.78125 -7.125 1.015625 -8.1875 1.484375 -9.125 C 1.960938 -10.070312 2.613281 -10.804688 3.4375 -11.328125 C 4.257812 -11.859375 5.164062 -12.125 6.15625 -12.125 C 6.863281 -12.125 7.53125 -11.992188 8.15625 -11.734375 C 8.78125 -11.472656 9.304688 -11.140625 9.734375 -10.734375 L 9.734375 -10.765625 C 9.734375 -11.148438 9.859375 -11.472656 10.109375 -11.734375 C 10.367188 -11.992188 10.691406 -12.125 11.078125 -12.125 Z M 6.578125 -2.21875 C 7.546875 -2.21875 8.332031 -2.566406 8.9375 -3.265625 C 9.539062 -3.972656 9.84375 -4.863281 9.84375 -5.9375 C 9.84375 -7 9.539062 -7.882812 8.9375 -8.59375 C 8.332031 -9.3125 7.546875 -9.671875 6.578125 -9.671875 C 5.628906 -9.671875 4.847656 -9.3125 4.234375 -8.59375 C 3.628906 -7.882812 3.328125 -7 3.328125 -5.9375 C 3.328125 -4.863281 3.628906 -3.972656 4.234375 -3.265625 C 4.835938 -2.566406 5.617188 -2.21875 6.578125 -2.21875 Z M 6.578125 -2.21875 "/></g></g></g><g fill="#d339af" fill-opacity="1"><g transform="translate(125.952645, 41.612672)"><g><path d="M 3.953125 -1.359375 C 3.953125 -0.972656 3.828125 -0.648438 3.578125 -0.390625 C 3.328125 -0.128906 3.007812 0 2.625 0 C 2.238281 0 1.921875 -0.128906 1.671875 -0.390625 C 1.421875 -0.648438 1.296875 -0.972656 1.296875 -1.359375 L 1.296875 -10.546875 C 1.296875 -10.929688 1.421875 -11.25 1.671875 -11.5 C 1.921875 -11.757812 2.238281 -11.890625 2.625 -11.890625 C 3.007812 -11.890625 3.328125 -11.757812 3.578125 -11.5 C 3.828125 -11.25 3.953125 -10.929688 3.953125 -10.546875 Z M 2.609375 -13.34375 C 2.097656 -13.34375 1.738281 -13.421875 1.53125 -13.578125 C 1.332031 -13.742188 1.234375 -14.035156 1.234375 -14.453125 L 1.234375 -14.875 C 1.234375 -15.289062 1.34375 -15.578125 1.5625 -15.734375 C 1.78125 -15.898438 2.132812 -15.984375 2.625 -15.984375 C 3.144531 -15.984375 3.507812 -15.898438 3.71875 -15.734375 C 3.925781 -15.578125 4.03125 -15.289062 4.03125 -14.875 L 4.03125 -14.453125 C 4.03125 -14.023438 3.921875 -13.734375 3.703125 -13.578125 C 3.492188 -13.421875 3.128906 -13.34375 2.609375 -13.34375 Z M 2.609375 -13.34375 "/></g></g></g><g fill="#d339af" fill-opacity="1"><g transform="translate(62.783038, 51.363259)"><g><path d="M 1.09375 -2.734375 L 0.015625 -2.734375 L 0.015625 -3.125 L 2.59375 -3.125 L 2.59375 -2.734375 L 1.53125 -2.734375 L 1.53125 0 L 1.09375 0 Z M 1.09375 -2.734375 "/></g></g></g><g fill="#d339af" fill-opacity="1"><g transform="translate(66.061926, 51.363259)"><g><path d="M 3.140625 -3.125 L 3.140625 0 L 2.703125 0 L 2.703125 -1.390625 L 0.90625 -1.390625 L 0.90625 0 L 0.46875 0 L 0.46875 -3.125 L 0.90625 -3.125 L 0.90625 -1.78125 L 2.703125 -1.78125 L 2.703125 -3.125 Z M 3.140625 -3.125 "/></g></g></g><g fill="#d339af" fill-opacity="1"><g transform="translate(70.34183, 51.363259)"><g><path d="M 2.734375 -0.390625 L 2.734375 0 L 0.46875 0 L 0.46875 -3.125 L 2.671875 -3.125 L 2.671875 -2.734375 L 0.90625 -2.734375 L 0.90625 -1.765625 L 2.46875 -1.765625 L 2.46875 -1.390625 L 0.90625 -1.390625 L 0.90625 -0.390625 Z M 2.734375 -0.390625 "/></g></g></g><g fill="#d339af" fill-opacity="1"><g transform="translate(73.989981, 51.363259)"><g/></g></g><g fill="#d339af" fill-opacity="1"><g transform="translate(75.854096, 51.363259)"><g><path d="M 0.90625 -2.734375 L 0.90625 -1.640625 L 2.46875 -1.640625 L 2.46875 -1.265625 L 0.90625 -1.265625 L 0.90625 0 L 0.46875 0 L 0.46875 -3.125 L 2.671875 -3.125 L 2.671875 -2.734375 Z M 0.90625 -2.734375 "/></g></g></g><g fill="#d339af" fill-opacity="1"><g transform="translate(79.346534, 51.363259)"><g><path d="M 1.765625 0.03125 C 1.347656 0.03125 1.019531 -0.0820312 0.78125 -0.3125 C 0.550781 -0.550781 0.4375 -0.894531 0.4375 -1.34375 L 0.4375 -3.125 L 0.890625 -3.125 L 0.890625 -1.359375 C 0.890625 -0.691406 1.179688 -0.359375 1.765625 -0.359375 C 2.046875 -0.359375 2.257812 -0.441406 2.40625 -0.609375 C 2.5625 -0.773438 2.640625 -1.023438 2.640625 -1.359375 L 2.640625 -3.125 L 3.078125 -3.125 L 3.078125 -1.34375 C 3.078125 -0.894531 2.957031 -0.550781 2.71875 -0.3125 C 2.488281 -0.0820312 2.171875 0.03125 1.765625 0.03125 Z M 1.765625 0.03125 "/></g></g></g><g fill="#d339af" fill-opacity="1"><g transform="translate(83.533011, 51.363259)"><g><path d="M 1.09375 -2.734375 L 0.015625 -2.734375 L 0.015625 -3.125 L 2.59375 -3.125 L 2.59375 -2.734375 L 1.53125 -2.734375 L 1.53125 0 L 1.09375 0 Z M 1.09375 -2.734375 "/></g></g></g><g fill="#d339af" fill-opacity="1"><g transform="translate(86.811898, 51.363259)"><g><path d="M 1.765625 0.03125 C 1.347656 0.03125 1.019531 -0.0820312 0.78125 -0.3125 C 0.550781 -0.550781 0.4375 -0.894531 0.4375 -1.34375 L 0.4375 -3.125 L 0.890625 -3.125 L 0.890625 -1.359375 C 0.890625 -0.691406 1.179688 -0.359375 1.765625 -0.359375 C 2.046875 -0.359375 2.257812 -0.441406 2.40625 -0.609375 C 2.5625 -0.773438 2.640625 -1.023438 2.640625 -1.359375 L 2.640625 -3.125 L 3.078125 -3.125 L 3.078125 -1.34375 C 3.078125 -0.894531 2.957031 -0.550781 2.71875 -0.3125 C 2.488281 -0.0820312 2.171875 0.03125 1.765625 0.03125 Z M 1.765625 0.03125 "/></g></g></g><g fill="#d339af" fill-opacity="1"><g transform="translate(90.998376, 51.363259)"><g><path d="M 2.546875 0 L 1.875 -0.953125 C 1.789062 -0.953125 1.726562 -0.953125 1.6875 -0.953125 L 0.90625 -0.953125 L 0.90625 0 L 0.46875 0 L 0.46875 -3.125 L 1.6875 -3.125 C 2.082031 -3.125 2.394531 -3.023438 2.625 -2.828125 C 2.863281 -2.628906 2.984375 -2.363281 2.984375 -2.03125 C 2.984375 -1.789062 2.921875 -1.582031 2.796875 -1.40625 C 2.679688 -1.238281 2.515625 -1.117188 2.296875 -1.046875 L 3.03125 0 Z M 1.671875 -1.328125 C 1.953125 -1.328125 2.164062 -1.382812 2.3125 -1.5 C 2.457031 -1.625 2.53125 -1.800781 2.53125 -2.03125 C 2.53125 -2.257812 2.457031 -2.429688 2.3125 -2.546875 C 2.164062 -2.671875 1.953125 -2.734375 1.671875 -2.734375 L 0.90625 -2.734375 L 0.90625 -1.328125 Z M 1.671875 -1.328125 "/></g></g></g><g fill="#d339af" fill-opacity="1"><g transform="translate(94.900119, 51.363259)"><g><path d="M 2.734375 -0.390625 L 2.734375 0 L 0.46875 0 L 0.46875 -3.125 L 2.671875 -3.125 L 2.671875 -2.734375 L 0.90625 -2.734375 L 0.90625 -1.765625 L 2.46875 -1.765625 L 2.46875 -1.390625 L 0.90625 -1.390625 L 0.90625 -0.390625 Z M 2.734375 -0.390625 "/></g></g></g><g fill="#d339af" fill-opacity="1"><g transform="translate(98.548271, 51.363259)"><g/></g></g><g fill="#d339af" fill-opacity="1"><g transform="translate(100.412388, 51.363259)"><g><path d="M 0.46875 -3.125 L 1.78125 -3.125 C 2.113281 -3.125 2.40625 -3.054688 2.65625 -2.921875 C 2.914062 -2.785156 3.113281 -2.597656 3.25 -2.359375 C 3.394531 -2.128906 3.46875 -1.863281 3.46875 -1.5625 C 3.46875 -1.25 3.394531 -0.972656 3.25 -0.734375 C 3.113281 -0.503906 2.914062 -0.320312 2.65625 -0.1875 C 2.40625 -0.0625 2.113281 0 1.78125 0 L 0.46875 0 Z M 1.75 -0.390625 C 2.007812 -0.390625 2.234375 -0.4375 2.421875 -0.53125 C 2.609375 -0.632812 2.753906 -0.773438 2.859375 -0.953125 C 2.960938 -1.128906 3.015625 -1.332031 3.015625 -1.5625 C 3.015625 -1.789062 2.960938 -1.992188 2.859375 -2.171875 C 2.753906 -2.347656 2.609375 -2.484375 2.421875 -2.578125 C 2.234375 -2.679688 2.007812 -2.734375 1.75 -2.734375 L 0.90625 -2.734375 L 0.90625 -0.390625 Z M 1.75 -0.390625 "/></g></g></g><g fill="#d339af" fill-opacity="1"><g transform="translate(104.754578, 51.363259)"><g><path d="M 2.734375 -0.390625 L 2.734375 0 L 0.46875 0 L 0.46875 -3.125 L 2.671875 -3.125 L 2.671875 -2.734375 L 0.90625 -2.734375 L 0.90625 -1.765625 L 2.46875 -1.765625 L 2.46875 -1.390625 L 0.90625 -1.390625 L 0.90625 -0.390625 Z M 2.734375 -0.390625 "/></g></g></g><g fill="#d339af" fill-opacity="1"><g transform="translate(108.40273, 51.363259)"><g><path d="M 1.859375 0.03125 C 1.546875 0.03125 1.265625 -0.0351562 1.015625 -0.171875 C 0.765625 -0.304688 0.566406 -0.492188 0.421875 -0.734375 C 0.285156 -0.984375 0.21875 -1.257812 0.21875 -1.5625 C 0.21875 -1.863281 0.285156 -2.132812 0.421875 -2.375 C 0.566406 -2.613281 0.765625 -2.800781 1.015625 -2.9375 C 1.265625 -3.082031 1.546875 -3.15625 1.859375 -3.15625 C 2.109375 -3.15625 2.332031 -3.113281 2.53125 -3.03125 C 2.738281 -2.945312 2.910156 -2.828125 3.046875 -2.671875 L 2.765625 -2.390625 C 2.523438 -2.628906 2.234375 -2.75 1.890625 -2.75 C 1.648438 -2.75 1.4375 -2.695312 1.25 -2.59375 C 1.0625 -2.488281 0.914062 -2.34375 0.8125 -2.15625 C 0.707031 -1.976562 0.65625 -1.78125 0.65625 -1.5625 C 0.65625 -1.332031 0.707031 -1.125 0.8125 -0.9375 C 0.914062 -0.757812 1.0625 -0.617188 1.25 -0.515625 C 1.4375 -0.410156 1.648438 -0.359375 1.890625 -0.359375 C 2.234375 -0.359375 2.523438 -0.484375 2.765625 -0.734375 L 3.046875 -0.453125 C 2.910156 -0.296875 2.738281 -0.175781 2.53125 -0.09375 C 2.332031 -0.0078125 2.109375 0.03125 1.859375 0.03125 Z M 1.859375 0.03125 "/></g></g></g><g fill="#d339af" fill-opacity="1"><g transform="translate(112.286673, 51.363259)"><g><path d="M 2.734375 -0.390625 L 2.734375 0 L 0.46875 0 L 0.46875 -3.125 L 2.671875 -3.125 L 2.671875 -2.734375 L 0.90625 -2.734375 L 0.90625 -1.765625 L 2.46875 -1.765625 L 2.46875 -1.390625 L 0.90625 -1.390625 L 0.90625 -0.390625 Z M 2.734375 -0.390625 "/></g></g></g><g fill="#d339af" fill-opacity="1"><g transform="translate(115.934825, 51.363259)"><g><path d="M 3.140625 -3.125 L 3.140625 0 L 2.78125 0 L 0.90625 -2.328125 L 0.90625 0 L 0.46875 0 L 0.46875 -3.125 L 0.828125 -3.125 L 2.703125 -0.796875 L 2.703125 -3.125 Z M 3.140625 -3.125 "/></g></g></g><g fill="#d339af" fill-opacity="1"><g transform="translate(120.21473, 51.363259)"><g><path d="M 1.09375 -2.734375 L 0.015625 -2.734375 L 0.015625 -3.125 L 2.59375 -3.125 L 2.59375 -2.734375 L 1.53125 -2.734375 L 1.53125 0 L 1.09375 0 Z M 1.09375 -2.734375 "/></g></g></g><g fill="#d339af" fill-opacity="1"><g transform="translate(123.493619, 51.363259)"><g><path d="M 2.546875 0 L 1.875 -0.953125 C 1.789062 -0.953125 1.726562 -0.953125 1.6875 -0.953125 L 0.90625 -0.953125 L 0.90625 0 L 0.46875 0 L 0.46875 -3.125 L 1.6875 -3.125 C 2.082031 -3.125 2.394531 -3.023438 2.625 -2.828125 C 2.863281 -2.628906 2.984375 -2.363281 2.984375 -2.03125 C 2.984375 -1.789062 2.921875 -1.582031 2.796875 -1.40625 C 2.679688 -1.238281 2.515625 -1.117188 2.296875 -1.046875 L 3.03125 0 Z M 1.671875 -1.328125 C 1.953125 -1.328125 2.164062 -1.382812 2.3125 -1.5 C 2.457031 -1.625 2.53125 -1.800781 2.53125 -2.03125 C 2.53125 -2.257812 2.457031 -2.429688 2.3125 -2.546875 C 2.164062 -2.671875 1.953125 -2.734375 1.671875 -2.734375 L 0.90625 -2.734375 L 0.90625 -1.328125 Z M 1.671875 -1.328125 "/></g></g></g><g fill="#d339af" fill-opacity="1"><g transform="translate(127.395362, 51.363259)"><g><path d="M 2.453125 -0.78125 L 0.796875 -0.78125 L 0.453125 0 L 0 0 L 1.40625 -3.125 L 1.84375 -3.125 L 3.265625 0 L 2.796875 0 Z M 2.296875 -1.140625 L 1.625 -2.65625 L 0.953125 -1.140625 Z M 2.296875 -1.140625 "/></g></g></g><g fill="#d339af" fill-opacity="1"><g transform="translate(131.31935, 51.363259)"><g><path d="M 0.46875 -3.125 L 0.90625 -3.125 L 0.90625 -0.390625 L 2.59375 -0.390625 L 2.59375 0 L 0.46875 0 Z M 0.46875 -3.125 "/></g></g></g><g fill="#d339af" fill-opacity="1"><g transform="translate(134.629381, 51.363259)"><g><path d="M 0.46875 -3.125 L 0.90625 -3.125 L 0.90625 0 L 0.46875 0 Z M 0.46875 -3.125 "/></g></g></g><g fill="#d339af" fill-opacity="1"><g transform="translate(136.675906, 51.363259)"><g><path d="M 2.796875 -0.390625 L 2.796875 0 L 0.1875 0 L 0.1875 -0.296875 L 2.15625 -2.734375 L 0.21875 -2.734375 L 0.21875 -3.125 L 2.734375 -3.125 L 2.734375 -2.8125 L 0.78125 -0.390625 Z M 2.796875 -0.390625 "/></g></g></g><g fill="#d339af" fill-opacity="1"><g transform="translate(140.266219, 51.363259)"><g><path d="M 2.734375 -0.390625 L 2.734375 0 L 0.46875 0 L 0.46875 -3.125 L 2.671875 -3.125 L 2.671875 -2.734375 L 0.90625 -2.734375 L 0.90625 -1.765625 L 2.46875 -1.765625 L 2.46875 -1.390625 L 0.90625 -1.390625 L 0.90625 -0.390625 Z M 2.734375 -0.390625 "/></g></g></g><g fill="#d339af" fill-opacity="1"><g transform="translate(143.914371, 51.363259)"><g><path d="M 0.46875 -3.125 L 1.78125 -3.125 C 2.113281 -3.125 2.40625 -3.054688 2.65625 -2.921875 C 2.914062 -2.785156 3.113281 -2.597656 3.25 -2.359375 C 3.394531 -2.128906 3.46875 -1.863281 3.46875 -1.5625 C 3.46875 -1.25 3.394531 -0.972656 3.25 -0.734375 C 3.113281 -0.503906 2.914062 -0.320312 2.65625 -0.1875 C 2.40625 -0.0625 2.113281 0 1.78125 0 L 0.46875 0 Z M 1.75 -0.390625 C 2.007812 -0.390625 2.234375 -0.4375 2.421875 -0.53125 C 2.609375 -0.632812 2.753906 -0.773438 2.859375 -0.953125 C 2.960938 -1.128906 3.015625 -1.332031 3.015625 -1.5625 C 3.015625 -1.789062 2.960938 -1.992188 2.859375 -2.171875 C 2.753906 -2.347656 2.609375 -2.484375 2.421875 -2.578125 C 2.234375 -2.679688 2.007812 -2.734375 1.75 -2.734375 L 0.90625 -2.734375 L 0.90625 -0.390625 Z M 1.75 -0.390625 "/></g></g></g><g fill="#d339af" fill-opacity="1"><g transform="translate(105.517189, 57.295178)"><g/></g></g></svg>